<mxfile host="app.diagrams.net" modified="2023-11-23T13:16:58.171Z" agent="Mozilla/5.0 (Windows NT 10.0; Win64; x64; rv:109.0) Gecko/20100101 Firefox/119.0" etag="u0tvPFGTzBOqMxLE3XQ6" version="22.1.3" type="github">
  <diagram name="Страница — 1" id="e6Opz_2W8KYHVWiIUTWs">
    <mxGraphModel dx="1707" dy="422" grid="1" gridSize="10" guides="1" tooltips="1" connect="1" arrows="1" fold="1" page="1" pageScale="1" pageWidth="827" pageHeight="1169" math="0" shadow="0">
      <root>
        <mxCell id="0" />
        <mxCell id="1" parent="0" />
        <mxCell id="hQeQaUu6SiH19N31j9b8-11" value="" style="edgeStyle=orthogonalEdgeStyle;rounded=0;orthogonalLoop=1;jettySize=auto;html=1;" edge="1" parent="1" source="hQeQaUu6SiH19N31j9b8-1" target="hQeQaUu6SiH19N31j9b8-2">
          <mxGeometry relative="1" as="geometry" />
        </mxCell>
        <mxCell id="hQeQaUu6SiH19N31j9b8-1" value="Начало" style="rounded=1;whiteSpace=wrap;html=1;" vertex="1" parent="1">
          <mxGeometry x="354" y="20" width="120" height="60" as="geometry" />
        </mxCell>
        <mxCell id="hQeQaUu6SiH19N31j9b8-29" value="" style="edgeStyle=orthogonalEdgeStyle;rounded=0;orthogonalLoop=1;jettySize=auto;html=1;" edge="1" parent="1" source="hQeQaUu6SiH19N31j9b8-2" target="hQeQaUu6SiH19N31j9b8-5">
          <mxGeometry relative="1" as="geometry" />
        </mxCell>
        <mxCell id="hQeQaUu6SiH19N31j9b8-2" value="Исходный массив" style="rounded=0;whiteSpace=wrap;html=1;" vertex="1" parent="1">
          <mxGeometry x="354" y="120" width="120" height="60" as="geometry" />
        </mxCell>
        <mxCell id="hQeQaUu6SiH19N31j9b8-28" style="edgeStyle=orthogonalEdgeStyle;rounded=0;orthogonalLoop=1;jettySize=auto;html=1;entryX=0;entryY=0.5;entryDx=0;entryDy=0;" edge="1" parent="1" source="hQeQaUu6SiH19N31j9b8-3" target="hQeQaUu6SiH19N31j9b8-16">
          <mxGeometry relative="1" as="geometry">
            <Array as="points">
              <mxPoint x="20" y="375" />
            </Array>
          </mxGeometry>
        </mxCell>
        <mxCell id="hQeQaUu6SiH19N31j9b8-3" value="Добавить строку в Новый массив" style="rounded=0;whiteSpace=wrap;html=1;" vertex="1" parent="1">
          <mxGeometry x="-30" y="505" width="120" height="60" as="geometry" />
        </mxCell>
        <mxCell id="hQeQaUu6SiH19N31j9b8-13" value="" style="edgeStyle=orthogonalEdgeStyle;rounded=0;orthogonalLoop=1;jettySize=auto;html=1;entryX=1;entryY=0.5;entryDx=0;entryDy=0;" edge="1" parent="1" source="hQeQaUu6SiH19N31j9b8-4" target="hQeQaUu6SiH19N31j9b8-15">
          <mxGeometry relative="1" as="geometry">
            <mxPoint x="270" y="415" as="targetPoint" />
            <Array as="points">
              <mxPoint x="414" y="535" />
            </Array>
          </mxGeometry>
        </mxCell>
        <mxCell id="hQeQaUu6SiH19N31j9b8-14" value="Нет" style="edgeLabel;html=1;align=center;verticalAlign=middle;resizable=0;points=[];" vertex="1" connectable="0" parent="hQeQaUu6SiH19N31j9b8-13">
          <mxGeometry x="-0.4231" y="-2" relative="1" as="geometry">
            <mxPoint as="offset" />
          </mxGeometry>
        </mxCell>
        <mxCell id="hQeQaUu6SiH19N31j9b8-26" value="" style="edgeStyle=orthogonalEdgeStyle;rounded=0;orthogonalLoop=1;jettySize=auto;html=1;" edge="1" parent="1" source="hQeQaUu6SiH19N31j9b8-4" target="hQeQaUu6SiH19N31j9b8-25">
          <mxGeometry relative="1" as="geometry" />
        </mxCell>
        <mxCell id="hQeQaUu6SiH19N31j9b8-27" value="Да" style="edgeLabel;html=1;align=center;verticalAlign=middle;resizable=0;points=[];" vertex="1" connectable="0" parent="hQeQaUu6SiH19N31j9b8-26">
          <mxGeometry x="-0.0714" y="1" relative="1" as="geometry">
            <mxPoint as="offset" />
          </mxGeometry>
        </mxCell>
        <mxCell id="hQeQaUu6SiH19N31j9b8-4" value="&lt;div&gt;Проверка длины массива&lt;/div&gt;&lt;div&gt;&amp;nbsp;i &amp;lt; Длины массива&lt;br&gt;&lt;/div&gt;" style="rhombus;whiteSpace=wrap;html=1;" vertex="1" parent="1">
          <mxGeometry x="322" y="310" width="184" height="130" as="geometry" />
        </mxCell>
        <mxCell id="hQeQaUu6SiH19N31j9b8-23" style="edgeStyle=orthogonalEdgeStyle;rounded=0;orthogonalLoop=1;jettySize=auto;html=1;" edge="1" parent="1" source="hQeQaUu6SiH19N31j9b8-5" target="hQeQaUu6SiH19N31j9b8-4">
          <mxGeometry relative="1" as="geometry" />
        </mxCell>
        <mxCell id="hQeQaUu6SiH19N31j9b8-5" value="&lt;div&gt;Создание нового массива&lt;/div&gt;&lt;div&gt;count = 0;&lt;/div&gt;&lt;div&gt;i = 0&lt;br&gt;&lt;/div&gt;" style="rounded=0;whiteSpace=wrap;html=1;" vertex="1" parent="1">
          <mxGeometry x="354" y="200" width="120" height="80" as="geometry" />
        </mxCell>
        <mxCell id="hQeQaUu6SiH19N31j9b8-17" value="" style="edgeStyle=orthogonalEdgeStyle;rounded=0;orthogonalLoop=1;jettySize=auto;html=1;" edge="1" parent="1" source="hQeQaUu6SiH19N31j9b8-15" target="hQeQaUu6SiH19N31j9b8-3">
          <mxGeometry relative="1" as="geometry" />
        </mxCell>
        <mxCell id="hQeQaUu6SiH19N31j9b8-18" value="Да" style="edgeLabel;html=1;align=center;verticalAlign=middle;resizable=0;points=[];" vertex="1" connectable="0" parent="hQeQaUu6SiH19N31j9b8-17">
          <mxGeometry x="0.36" y="2" relative="1" as="geometry">
            <mxPoint as="offset" />
          </mxGeometry>
        </mxCell>
        <mxCell id="hQeQaUu6SiH19N31j9b8-19" value="" style="edgeStyle=orthogonalEdgeStyle;rounded=0;orthogonalLoop=1;jettySize=auto;html=1;" edge="1" parent="1" source="hQeQaUu6SiH19N31j9b8-15" target="hQeQaUu6SiH19N31j9b8-16">
          <mxGeometry relative="1" as="geometry" />
        </mxCell>
        <mxCell id="hQeQaUu6SiH19N31j9b8-20" value="Нет" style="edgeLabel;html=1;align=center;verticalAlign=middle;resizable=0;points=[];" vertex="1" connectable="0" parent="hQeQaUu6SiH19N31j9b8-19">
          <mxGeometry x="-0.1478" y="-1" relative="1" as="geometry">
            <mxPoint y="1" as="offset" />
          </mxGeometry>
        </mxCell>
        <mxCell id="hQeQaUu6SiH19N31j9b8-15" value="&lt;div&gt;Проверка длины строки&lt;/div&gt;&lt;div&gt;&amp;nbsp;&amp;lt;= 3&lt;/div&gt;" style="rhombus;whiteSpace=wrap;html=1;" vertex="1" parent="1">
          <mxGeometry x="130" y="480" width="160" height="110" as="geometry" />
        </mxCell>
        <mxCell id="hQeQaUu6SiH19N31j9b8-24" style="edgeStyle=orthogonalEdgeStyle;rounded=0;orthogonalLoop=1;jettySize=auto;html=1;" edge="1" parent="1" source="hQeQaUu6SiH19N31j9b8-16" target="hQeQaUu6SiH19N31j9b8-4">
          <mxGeometry relative="1" as="geometry" />
        </mxCell>
        <mxCell id="hQeQaUu6SiH19N31j9b8-16" value="&lt;div&gt;count = count + 1&lt;/div&gt;&lt;div&gt;i = i+ 1&lt;br&gt;&lt;/div&gt;" style="rounded=0;whiteSpace=wrap;html=1;" vertex="1" parent="1">
          <mxGeometry x="150" y="342.5" width="120" height="65" as="geometry" />
        </mxCell>
        <mxCell id="hQeQaUu6SiH19N31j9b8-25" value="Напечатать Новый массив" style="rounded=0;whiteSpace=wrap;html=1;" vertex="1" parent="1">
          <mxGeometry x="590" y="345" width="120" height="60" as="geometry" />
        </mxCell>
      </root>
    </mxGraphModel>
  </diagram>
</mxfile>
